PathFileType	4	(X/Y/Z)	AB13\squats_1.trc
DataRate	CameraRate	NumFrames	NumMarkers	Units	OrigDataRate	OrigDataStartFrame	OrigNumFrames
200.000000	200.000000	4	35	mm	200.000000	0	316
Frame#	Time	C7			LSHO			STRN			LASI			RASI			LPSI			RPSI			LGTR			RGTR			LTHC			LTHL			LTHR			LKNE			LMKNE			LSHC			LSHL			LSHR			LANK			LMANK			LMT1			LMT5			LCAL			RTHC			RTHL			RTHR			RKNE			RSHC			RSHL			RSHR			RANK			RMANK			RMT1			RMT5			RCAL			RMKNE			
		X1	Y1	Z1	X2	Y2	Z2	X3	Y3	Z3	X4	Y4	Z4	X5	Y5	Z5	X6	Y6	Z6	X7	Y7	Z7	X8	Y8	Z8	X9	Y9	Z9	X10	Y10	Z10	X11	Y11	Z11	X12	Y12	Z12	X13	Y13	Z13	X14	Y14	Z14	X15	Y15	Z15	X16	Y16	Z16	X17	Y17	Z17	X18	Y18	Z18	X19	Y19	Z19	X20	Y20	Z20	X21	Y21	Z21	X22	Y22	Z22	X23	Y23	Z23	X24	Y24	Z24	X25	Y25	Z25	X26	Y26	Z26	X27	Y27	Z27	X28	Y28	Z28	X29	Y29	Z29	X30	Y30	Z30	X31	Y31	Z31	X32	Y32	Z32	X33	Y33	Z33	X34	Y34	Z34	X35	Y35	Z35	

1	32.69	-3453.637061313098	1448.02087664444	2491.006627041798	-3526.539283332268	1413.786282007943	2635.919197838687	-3579.754189849964	1332.742752596972	2474.900349306068	-3585.371131214827	946.9998123687799	2597.090435822563	-3571.338314736203	921.0625407135923	2336.224448298349	-3360.683155338775	1005.991329842505	2529.464860305633	-3362.635854571613	1023.738257985749	2456.545912905567	-3485.120705621062	912.5758260043362	2671.80697092205	-3458.406610888665	893.5062247362318	2282.490075441167	-3515.893267988825	716.8507731597601	2675.195175861002	-3416.007818943247	592.9785782568083	2579.648278542305	-3590.545960686133	686.4019491946201	2608.613915787943	-3520.604290134692	480.6539188116982	2660.246203199589	-3517.449337551871	468.8804424338414	2545.872589100631	-3437.888161393005	245.8654830719412	2697.024857948135	-3507.764806175117	266.1884155216594	2650.532803800432	-3386.274507905215	211.6807425951946	2634.855783176936	-3412.328138752849	98.64232234271442	2693.743272837035	-3442.708952850365	102.6785114537528	2612.480878297131	-3556.37357532559	55.03827256605651	2650.692934385956	-3517.264657728159	51.09545288533651	2731.24580419667	-3353.349195530366	76.1999840899439	2649.930947602929	-3408.580222308216	584.5726153258707	2362.750597541896	-3490.756463576461	726.6714693538549	2268.552623768759	-3583.443178758627	676.7901884460925	2345.565466294043	-3503.275315369603	488.3416600909699	2283.37592452037	-3383.325518555992	194.605375217776	2327.677761561533	-3428.681202563643	248.7259173288895	2260.334007573966	-3502.766764840493	281.2444113926874	2291.2947760028	-3406.004998321394	106.4430833512861	2264.525530405701	-3445.231670288227	102.7851752675011	2341.462738531877	-3555.365612764723	54.07633600336561	2287.992033696637	-3487.677132433607	46.38652495675554	2211.85319412949	-3346.642930001981	69.39714267757728	2311.297131946399	-3522.298343012504	473.861542252723	2400.281091852243	
2	32.695	-3454.272432668207	1446.988344309891	2490.885041325738	-3527.281248202234	1412.690027038404	2635.631761911521	-3580.033702480063	1331.401244036251	2474.827516592818	-3583.915107765	945.7925919063568	2597.066182647484	-3570.020799472116	919.7382125287049	2336.111962410882	-3359.431939285231	1005.50214201013	2529.40065879929	-3361.569074684043	1023.073931041465	2456.44405270154	-3483.731771007751	911.7844768453436	2671.822204643079	-3457.012953524375	892.5695477178757	2282.31177742265	-3515.855672559976	716.2389332517106	2675.21142533681	-3417.002682666069	591.6161737720072	2580.001021907063	-3590.722205501207	686.6191009807144	2608.479292029424	-3522.440269350785	480.1411753859377	2660.453877037513	-3519.390685056059	468.4836186226287	2546.184145913713	-3438.662261638155	245.69748419099	2697.131552690655	-3508.680837205452	265.6805113680325	2650.680489234721	-3386.948622903049	211.782225311581	2634.86271066713	-3412.383735071852	98.64331226500983	2693.808142368672	-3442.692893913113	102.6362627503755	2612.482851293565	-3556.351384441918	55.07533985309583	2650.693980341436	-3517.254622074383	51.08764957188438	2731.231096018675	-3353.348130088046	76.17423114244986	2649.934144458618	-3409.793221536135	583.0572421859493	2362.143494139746	-3490.351782043607	725.942783448676	2268.117430948331	-3583.669824695502	676.9256818686681	2344.865761209014	-3505.207132141766	487.7268656552121	2282.616259593158	-3383.963893550958	194.7181332124137	2327.459372260467	-3429.552404223047	248.4833885634802	2259.964361346743	-3503.848399759946	280.6096752298035	2290.815059697737	-3406.049742418559	106.3949083891797	2264.446903428213	-3445.277042434021	102.7699215740328	2341.405700758626	-3555.324396764314	54.11485678813595	2287.958711247024	-3487.636157871654	46.34484679076774	2211.842801573761	-3346.607608281352	69.33298039379461	2311.26117823074	-3524.423370610723	473.4199945219394	2399.393892403587	
3	32.7	-3454.907855559373	1445.949408048124	2490.765229511298	-3528.022533882999	1411.585152105683	2635.346335893658	-3580.312575744051	1330.051422778361	2474.755001679031	-3582.453247782467	944.5802034895526	2597.042558995247	-3568.699108002223	918.4052067021807	2336.003116215303	-3358.178003013127	1005.004466691897	2529.334597396848	-3360.499559817306	1022.399988968034	2456.336759653085	-3482.341551460741	910.9929545627965	2671.840000644916	-3455.618447873732	891.6213153818462	2282.131303919059	-3515.819882523262	715.6266568424154	2675.230191829743	-3417.99579308793	590.2531549858153	2580.358211858445	-3590.896359418359	686.8322693245009	2608.34667048623	-3524.277538164698	479.6265322394133	2660.665087974547	-3521.327258520321	468.0842504542849	2546.497941594608	-3439.434556318471	245.5284799551665	2697.23996070868	-3509.595872975742	265.1712225220319	2650.830600467962	-3387.622103919618	211.8831621219698	2634.872120026407	-3412.436483016351	98.64261165080909	2693.873700575702	-3442.675496315648	102.5934481469387	2612.486184354	-3556.328076881653	55.11236224832729	2650.694976891454	-3517.243874919312	51.07882384242399	2731.217148772964	-3353.346294820699	76.14684296503047	2649.938312560774	-3411.009496482366	581.5366961440701	2361.535399664388	-3489.944953966134	725.2076937441276	2267.67959779568	-3583.897048161721	677.0567360531778	2344.16086260479	-3507.141314974373	487.1075352970204	2281.852437337918	-3384.604040612423	194.8293396447996	2327.240533725623	-3430.424085697235	248.2396441090835	2259.592207349558	-3504.93099325989	279.9721045459182	2290.333484126854	-3406.094206961667	106.3467201778725	2264.367995103508	-3445.321442746239	102.7540509051952	2341.348100245573	-3555.28288330894	54.15432121543193	2287.924247889377	-3487.595645631311	46.30478799401276	2211.8313245146	-3346.57239686429	69.26904537019128	2311.225607597687	-3526.552095687621	472.975841307532	2398.503114546027	
4	32.705	-3455.54201205372	1444.90080022644	2490.648555732112	-3528.760666537602	1410.466769223527	2635.064694790906	-3580.590416217739	1328.689801221629	2474.68331451741	-3580.988800525351	943.3613220218555	2597.01962304787	-3567.376997739651	917.0611084991809	2335.898591073309	-3356.924975922215	1004.493328773671	2529.26444554524	-3359.430184936396	1021.711900164798	2456.220913142161	-3480.953531054253	910.2008504650782	2671.860161713702	-3454.228513281735	890.6570554077317	2281.946980821102	-3515.786238334146	715.0146769703339	2675.253530793414	-3418.985375688625	588.8916082567169	2580.719709283844	-3591.066897146762	687.0381278337211	2608.218750516296	-3526.111270811317	479.1105506687095	2660.882435291595	-3523.25348218651	467.6819198065534	2546.81500782255	-3440.202463187914	245.3585877900125	2697.350619716426	-3510.507224766742	264.6614657471607	2650.984480814631	-3388.293365450962	211.9828377096713	2634.884298767101	-3412.485621726097	98.63928125223711	2693.940346333914	-3442.656987130999	102.5506484351451	2612.491234799946	-3556.303554117809	55.14941137451658	2650.696311378515	-3517.232200684314	51.06906660954489	2731.205014984402	-3353.343455047176	76.11770240726364	2649.943713973789	-3412.226766692582	580.0125360019815	2360.927589170602	-3489.536976753555	724.4635691467497	2267.239249363111	-3584.123465539704	677.1784148777939	2343.451131357996	-3509.072388269564	486.4837877283218	2281.084869078134	-3385.244360105709	194.9381859001514	2327.021652750701	-3431.29387879733	247.9938862927592	2259.218522504887	-3506.01149941611	279.3323751868929	2289.850749027722	-3406.138430269333	106.2985190549723	2264.2888807736	-3445.364829255063	102.7373045324133	2341.289800260849	-3555.241314635866	54.19453459787047	2287.888623779406	-3487.555704856022	46.26679102446451	2211.818282026176	-3346.537580831399	69.20576538278232	2311.190793896983	-3528.679378860438	472.5283901047948	2397.609920571277	
